Coordinates
version=1
nRows=26
nColumns=24
inDegrees=yes

Units are S.I. units (second, meters, Newtons, ...)
Angles are in degrees.

endheader
time	pelvis_tilt	pelvis_list	pelvis_rotation	pelvis_tx	pelvis_ty	pelvis_tz	hip_flexion_r	hip_adduction_r	hip_rotation_r	knee_angle_r	ankle_angle_r	subtalar_angle_r	mtp_angle_r	hip_flexion_l	hip_adduction_l	hip_rotation_l	knee_angle_l	ankle_angle_l	subtalar_angle_l	mtp_angle_l	lumbar_extension	lumbar_bending	lumbar_rotation
      1.00000000	      7.26829087	      0.26493065	      0.82715855	      0.59577663	      1.04575819	      0.04594259	     -6.82172541	      1.79046541	     -4.75707804	     -8.03953133	      6.32450166	      0.00000127	      0.00000000	     16.68891979	     -4.17898029	     -7.38838676	    -58.67368511	      1.04766267	      0.00001070	      0.00000000	    -24.04578872	      1.12622019	      0.60172626
      1.01700000	      7.25309792	      0.32012256	      0.55782509	      0.59372852	      1.04557614	      0.04694587	     -8.20662016	      1.81370068	     -4.51945655	     -7.29460129	      6.70749301	      0.00000122	      0.00000000	     17.50746912	     -3.87185896	     -7.62179815	    -54.52672519	      1.45328497	      0.00000950	      0.00000000	    -24.13412002	      0.87775880	      0.93095273
      1.03300000	      7.18457251	      0.22194467	      0.37416068	      0.59157607	      1.04493727	      0.04801440	     -9.60325406	      2.01625380	     -4.38683656	     -6.41058826	      7.01042024	      0.00000109	      0.00000000	     18.17262742	     -3.89017737	     -8.15304197	    -49.86441146	      1.55631172	      0.00000812	      0.00000000	    -24.19853523	      0.83114125	      1.23082251
      1.05000000	      7.20908655	      0.00313019	      0.24748405	      0.58938989	      1.04414401	      0.04860396	    -11.04787779	      2.31341725	     -4.27836237	     -5.64369251	      7.32533989	      0.00000107	      0.00000000	     18.49232671	     -4.05256661	     -8.90376046	    -44.68032097	      1.35036647	      0.00000656	      0.00000000	    -24.41944871	      0.92739473	      1.36242568
      1.06700000	      6.95996896	     -0.46529507	     -0.02424897	      0.58704738	      1.04236892	      0.04932717	    -12.11819442	      2.82227501	     -3.95196113	     -5.01227038	      7.66387142	      0.00000107	      0.00000000	     18.93789565	     -4.49678299	     -9.87841955	    -39.22669637	      0.94708943	      0.00000511	      0.00000000	    -24.16822556	      1.27363554	      1.80701633
      1.08300000	      6.74069449	     -0.75297823	     -0.27379083	      0.58508298	      1.04037640	      0.04950355	    -13.28401512	      3.08564708	     -3.51480288	     -4.33973837	      8.04590426	      0.00000095	      0.00000000	     19.05847556	     -4.59487212	    -10.86776450	    -33.33285121	      0.30852523	      0.00000391	      0.00000000	    -24.11638993	      1.35319297	      2.00692786
      1.10000000	      6.45992838	     -1.20266663	     -0.52917916	      0.58353134	      1.03788114	      0.04989581	    -14.47093160	      3.51525865	     -3.01668543	     -3.57322719	      8.35045523	      0.00000104	      0.00000000	     19.19483585	     -4.74388309	    -11.49618839	    -27.54216399	     -0.27840300	      0.00000348	      0.00000000	    -23.85732409	      1.65321080	      2.39614818
      1.11700000	      6.14596359	     -1.56160639	     -0.77552281	      0.58204220	      1.03509037	      0.05003215	    -15.50459786	      3.82143703	     -2.43025965	     -3.09685386	      8.81837393	      0.00000099	      0.00000000	     19.16722741	     -4.60577727	    -11.46395048	    -21.58044729	     -0.79784299	      0.00000320	      0.00000000	    -23.63813370	      1.88627769	      2.47762878
      1.13300000	      5.93496145	     -2.01600926	     -1.25342080	      0.58035075	      1.03208833	      0.04992246	    -16.54641856	      4.10579583	     -1.58109308	     -2.81892903	      9.35850901	      0.00000089	      0.00000000	     18.97793632	     -4.56209680	    -10.84084923	    -15.91728293	     -1.07169700	      0.00000325	      0.00000000	    -23.56685856	      2.06329507	      2.96886596
      1.15000000	      5.95865911	     -2.41868468	     -1.50068392	      0.57949199	      1.02924851	      0.04938986	    -17.90604439	      4.36378508	     -0.98172797	     -2.49300898	      9.82395971	      0.00000104	      0.00000000	     18.30246048	     -4.40449684	     -9.36479461	    -10.35435233	     -1.20294282	      0.00000309	      0.00000000	    -23.62687888	      2.34027551	      3.33432356
      1.16700000	      5.90741057	     -2.71715149	     -1.87930292	      0.57908366	      1.02597763	      0.04921995	    -19.25927935	      4.47218280	     -0.39930329	     -2.08961771	     10.25959698	      0.00000096	      0.00000000	     17.78358649	     -4.34576184	     -7.78533801	     -5.79597615	     -1.03801366	      0.00000293	      0.00000000	    -23.71793166	      2.31356424	      3.29809546
      1.18300000	      6.04603768	     -3.04729360	     -2.44397293	      0.57857121	      1.02312005	      0.04883156	    -20.59507028	      4.47056649	      0.30122524	     -2.11638762	     10.74544882	      0.00000106	      0.00000000	     17.16359019	     -4.47274237	     -6.48676353	     -2.40131338	     -0.69844754	      0.00000287	      0.00000000	    -23.84211469	      2.33659195	      3.93397418
      1.20000000	      5.95771607	     -3.16292193	     -2.72654198	      0.57887266	      1.02008308	      0.04836132	    -21.74427328	      4.35825164	      0.64356340	     -2.08830254	     11.10015936	      0.00000122	      0.00000000	     16.98360560	     -4.39819497	     -5.32714677	     -0.37150484	     -0.37121976	      0.00000281	      0.00000000	    -23.75554849	      2.12754021	      3.67166844
      1.21700000	      6.11120295	     -3.26747384	     -2.98790707	      0.57848195	      1.01790628	      0.04759184	    -22.74302949	      4.19324798	      1.00086460	     -2.77577766	     11.55884995	      0.00000141	      0.00000000	     17.00596008	     -4.34087459	     -4.52209135	     -0.21573950	     -0.03198675	      0.00000289	      0.00000000	    -24.00676542	      1.85831244	      3.76527898
      1.23300000	      6.23081200	     -3.20506113	     -3.32480526	      0.57883637	      1.01612660	      0.04658956	    -23.59907790	      3.80333167	      1.41697888	     -3.68483108	     11.95413918	      0.00000172	      0.00000000	     17.17352102	     -4.12466549	     -4.13182584	     -1.31574064	      0.01576633	      0.00000303	      0.00000000	    -24.05521328	      1.39699142	      3.68666739
      1.25000000	      6.13506498	     -3.09840503	     -3.92094225	      0.58029319	      1.01469637	      0.04497933	    -24.02148805	      3.22100757	      2.01813216	     -5.08817514	     12.28051306	      0.00000215	      0.00000000	     17.58584259	     -3.90742631	     -4.16062396	     -3.37678199	     -0.30404766	      0.00000309	      0.00000000	    -23.79570713	      0.96432132	      3.84201623
      1.26700000	      6.02211742	     -2.88154116	     -3.94753590	      0.58248884	      1.01342911	      0.04311149	    -24.26018268	      2.79211433	      2.06795565	     -6.86972793	     12.51504429	      0.00000261	      0.00000000	     18.23588593	     -3.46769391	     -3.87634405	     -6.20886593	     -0.99741701	      0.00000341	      0.00000000	    -23.36949622	      0.47876865	      3.62897903
      1.28300000	      5.86674895	     -3.08954416	     -4.11926124	      0.58353852	      1.01259609	      0.04176011	    -23.97510195	      2.77397684	      2.31587461	     -9.47743151	     12.56521297	      0.00000323	      0.00000000	     18.83853495	     -3.57552632	     -3.79829920	     -8.98635142	     -2.06774334	      0.00000369	      0.00000000	    -23.20974077	      0.26809943	      3.53470421
      1.30000000	      5.78909151	     -3.00072318	     -4.32669804	      0.58613901	      1.01243405	      0.04016967	    -23.81335613	      2.40404054	      2.38472242	    -12.03088833	     12.11261748	      0.00000394	      0.00000000	     19.27213695	     -3.41822941	     -4.00230254	    -11.88195608	     -2.87687396	      0.00000402	      0.00000000	    -22.85802609	     -0.32012017	      3.38388634
      1.31700000	      5.97399699	     -2.83921558	     -4.49756680	      0.58926965	      1.01320135	      0.03836702	    -23.37233487	      1.95506380	      2.32264174	    -15.62445763	     11.36616636	      0.00000486	      0.00000000	     19.20486785	     -3.18527215	     -4.32623491	    -14.47988019	     -3.39386124	      0.00000443	      0.00000000	    -22.76171985	     -0.92095990	      3.02869994
      1.33300000	      6.21409575	     -2.67025586	     -4.52742736	      0.59257434	      1.01447624	      0.03633084	    -22.44702040	      1.52316916	      1.83699650	    -20.12081635	     10.06256577	      0.00000591	      0.00000000	     18.89440288	     -2.91091550	     -4.53536738	    -16.80911007	     -3.49062830	      0.00000473	      0.00000000	    -22.64477060	     -1.50070092	      2.76739521
      1.35000000	      6.69778716	     -2.39898517	     -4.45045097	      0.59600352	      1.01653560	      0.03378327	    -21.20546188	      0.89185379	      0.79458253	    -25.42326338	      7.87422292	      0.00000706	      0.00000000	     18.03507075	     -2.46369616	     -4.68492130	    -18.66215272	     -3.25017174	      0.00000499	      0.00000000	    -22.76420597	     -2.08607205	      2.37941137
      1.36700000	      7.00886043	     -2.06380443	     -4.22174700	      0.59914304	      1.01851169	      0.03048391	    -19.17418836	      0.02302405	     -0.95031672	    -31.44565555	      4.62529652	      0.00000823	      0.00000000	     17.13139197	     -1.88646309	     -4.72225311	    -20.07045130	     -2.72093794	      0.00000530	      0.00000000	    -22.74280808	     -2.58468131	      1.79157715
      1.38300000	      7.19360253	     -1.62928995	     -4.07465101	      0.60162612	      1.02041320	      0.02688694	    -16.50442193	     -1.29495113	     -3.05282977	    -37.81360381	      0.44362542	      0.00000892	      0.00000000	     16.09823616	     -1.20005326	     -4.82658230	    -20.95405713	     -1.98028983	      0.00000553	      0.00000000	    -22.70956360	     -3.11745274	      1.37614248
      1.40000000	      7.33398490	     -1.13807120	     -3.92447962	      0.60337722	      1.02233631	      0.02336416	    -13.59343854	     -2.93607917	     -5.23148561	    -43.91463695	     -4.10465782	      0.00000836	      0.00000000	     14.96690110	     -0.42928837	     -4.86391861	    -21.50684487	     -1.04964998	      0.00000571	      0.00000000	    -22.60070321	     -3.64383709	      0.69481519
      1.41700000	      7.60603005	     -0.62009377	     -3.83718617	      0.60481428	      1.02497668	      0.01963547	    -10.89369167	     -4.76858814	     -7.08180689	    -49.28812818	     -8.01950253	      0.00000694	      0.00000000	     13.32865285	      0.43638087	     -4.90333714	    -21.32470944	     -0.16553494	      0.00000572	      0.00000000	    -22.77795869	     -4.14405546	      0.11067648
